<?xml version="1.0" encoding="UTF-8" standalone="no"?>
<!-- Generated by graphviz version 14.0.5 (20251129.0259)
 -->
<!-- Title: G Pages: 1 -->
<svg width="409pt" height="383pt"
 viewBox="0.00 0.00 409.00 383.00" xmlns="http://www.w3.org/2000/svg" xmlns:xlink="http://www.w3.org/1999/xlink">
<g id="graph0" class="graph" transform="scale(1 1) rotate(0) translate(4 378.5)">
<title>G</title>
<polygon fill="white" stroke="none" points="-4,4 -4,-378.5 404.74,-378.5 404.74,4 -4,4"/>
<!-- A -->
<g id="node1" class="node">
<title>A</title>
<ellipse fill="none" stroke="black" cx="80.12" cy="-268" rx="27" ry="18"/>
<text xml:space="preserve" text-anchor="middle" x="80.12" y="-262.95" font-family="Times,serif" font-size="14.00">off</text>
</g>
<!-- B -->
<g id="node2" class="node">
<title>B</title>
<ellipse fill="none" stroke="black" cx="137.12" cy="-179.5" rx="61.59" ry="18"/>
<text xml:space="preserve" text-anchor="middle" x="137.12" y="-174.45" font-family="Times,serif" font-size="14.00">inprogress&#45;on</text>
</g>
<!-- A&#45;&gt;B -->
<g id="edge1" class="edge">
<title>A&#45;&gt;B</title>
<path fill="none" stroke="black" d="M76.5,-249.68C75.22,-239.14 75.3,-225.77 81.12,-215.5 84.2,-210.08 88.49,-205.38 93.35,-201.34"/>
<polygon fill="black" stroke="black" points="95.22,-204.31 101.33,-195.66 91.16,-198.61 95.22,-204.31"/>
<text xml:space="preserve" text-anchor="middle" x="187.62" y="-218.7" font-family="Times,serif" font-size="14.00">SELECT pg_enable_data_checksums()</text>
</g>
<!-- C -->
<g id="node3" class="node">
<title>C</title>
<ellipse fill="none" stroke="black" cx="137.12" cy="-106.5" rx="27" ry="18"/>
<text xml:space="preserve" text-anchor="middle" x="137.12" y="-101.45" font-family="Times,serif" font-size="14.00">on</text>
</g>
<!-- B&#45;&gt;C -->
<g id="edge2" class="edge">
<title>B&#45;&gt;C</title>
<path fill="none" stroke="black" d="M137.12,-161.31C137.12,-153.73 137.12,-144.6 137.12,-136.04"/>
<polygon fill="black" stroke="black" points="140.62,-136.04 137.12,-126.04 133.62,-136.04 140.62,-136.04"/>
</g>
<!-- D -->
<g id="node4" class="node">
<title>D</title>
<ellipse fill="none" stroke="black" cx="63.12" cy="-18" rx="63.12" ry="18"/>
<text xml:space="preserve" text-anchor="middle" x="63.12" y="-12.95" font-family="Times,serif" font-size="14.00">inprogress&#45;off</text>
</g>
<!-- C&#45;&gt;D -->
<g id="edge4" class="edge">
<title>C&#45;&gt;D</title>
<path fill="none" stroke="black" d="M124.23,-90.43C113.36,-77.73 97.58,-59.28 84.77,-44.31"/>
<polygon fill="black" stroke="black" points="87.78,-42.44 78.62,-37.12 82.46,-46.99 87.78,-42.44"/>
<text xml:space="preserve" text-anchor="middle" x="214.75" y="-57.2" font-family="Times,serif" font-size="14.00">SELECT pg_disable_data_checksums()</text>
</g>
<!-- D&#45;&gt;A -->
<g id="edge3" class="edge">
<title>D&#45;&gt;A</title>
<path fill="none" stroke="black" d="M62.52,-36.28C61.62,-68.21 60.54,-138.57 66.12,-197.5 67.43,-211.24 70.27,-226.28 73.06,-238.85"/>
<polygon fill="black" stroke="black" points="69.64,-239.59 75.32,-248.54 76.46,-238 69.64,-239.59"/>
</g>
<!-- E -->
<g id="node5" class="node">
<title>E</title>
<ellipse fill="none" stroke="black" cx="198.12" cy="-356.5" rx="32.41" ry="18"/>
<text xml:space="preserve" text-anchor="middle" x="198.12" y="-351.45" font-family="Times,serif" font-size="14.00">initdb</text>
</g>
<!-- E&#45;&gt;A -->
<g id="edge5" class="edge">
<title>E&#45;&gt;A</title>
<path fill="none" stroke="black" d="M179.16,-341.6C159.64,-327.29 129.05,-304.86 107.03,-288.72"/>
<polygon fill="black" stroke="black" points="109.23,-286 99.1,-282.91 105.09,-291.64 109.23,-286"/>
<text xml:space="preserve" text-anchor="middle" x="208.57" y="-307.2" font-family="Times,serif" font-size="14.00"> &#45;&#45;no&#45;data&#45;checksums</text>
</g>
<!-- E&#45;&gt;C -->
<g id="edge6" class="edge">
<title>E&#45;&gt;C</title>
<path fill="none" stroke="black" d="M227.13,-348.04C242.29,-342.72 259.95,-334.06 271.12,-320.5 301.5,-283.62 316.36,-257.78 294.12,-215.5 268.41,-166.6 209.42,-135.53 171.52,-119.85"/>
<polygon fill="black" stroke="black" points="172.96,-116.65 162.37,-116.21 170.37,-123.16 172.96,-116.65"/>
<text xml:space="preserve" text-anchor="middle" x="350.87" y="-218.7" font-family="Times,serif" font-size="14.00"> &#45;&#45;data&#45;checksums</text>
</g>
</g>
</svg>
