<?xml version="1.0"?>
<!-- Generated by graphviz version 2.40.1 (20161225.0304)
 -->
<!-- Title: %3 Pages: 1 -->
<svg xmlns="http://www.w3.org/2000/svg" xmlns:xlink="http://www.w3.org/1999/xlink" width="583pt" height="580pt" viewBox="0.00 0.00 583.00 580.30">
<g id="graph0" class="graph" transform="scale(1 1) rotate(0) translate(72 544.3026)">
<title>%3</title>
<polygon fill="#f5f5f5" stroke="none" points="-72,36 -72,-544.3026 511,-544.3026 511,36 -72,36"/>
<!-- a1 -->
<g id="node1" class="node">
<title>a1</title>
<polygon fill="#ffffff" stroke="#000000" points="187,-508.3026 101,-508.3026 101,-472.3026 187,-472.3026 187,-508.3026"/>
<text text-anchor="middle" x="144" y="-488.4026" font-family="sans-serif" font-size="8.00" fill="#000000">INITIALIZE t := 0</text>
</g>
<!-- a2 -->
<g id="node2" class="node">
<title>a2</title>
<polygon fill="#ffffff" stroke="#000000" points="182,-450.3026 106,-450.3026 106,-414.3026 182,-414.3026 182,-450.3026"/>
<text text-anchor="middle" x="144" y="-430.4026" font-family="sans-serif" font-size="8.00" fill="#000000">INITIALIZE P(t)</text>
</g>
<!-- a1&#45;&gt;a2 -->
<g id="edge1" class="edge">
<title>a1-&gt;a2</title>
<path fill="none" stroke="#000000" d="M144,-472.269C144,-472.269 144,-460.5248 144,-460.5248"/>
<polygon fill="#000000" stroke="#000000" points="147.5001,-460.5248 144,-450.5248 140.5001,-460.5249 147.5001,-460.5248"/>
</g>
<!-- a3 -->
<g id="node3" class="node">
<title>a3</title>
<polygon fill="#ffffff" stroke="#000000" points="203.5,-392.3026 84.5,-392.3026 84.5,-356.3026 203.5,-356.3026 203.5,-392.3026"/>
<text text-anchor="middle" x="144" y="-372.4026" font-family="sans-serif" font-size="8.00" fill="#000000">evaluate FITNESS of P(t)</text>
</g>
<!-- a2&#45;&gt;a3 -->
<g id="edge2" class="edge">
<title>a2-&gt;a3</title>
<path fill="none" stroke="#000000" d="M144,-414.269C144,-414.269 144,-402.5248 144,-402.5248"/>
<polygon fill="#000000" stroke="#000000" points="147.5001,-402.5248 144,-392.5248 140.5001,-402.5249 147.5001,-402.5248"/>
</g>
<!-- a4 -->
<g id="node4" class="node">
<title>a4</title>
<polygon fill="#ffffff" stroke="#000000" points="144,-334.3026 0,-316.3026 144,-298.3026 288,-316.3026 144,-334.3026"/>
<text text-anchor="middle" x="144" y="-314.4026" font-family="sans-serif" font-size="8.00" fill="#000000">STOPPING CRITERION</text>
</g>
<!-- a3&#45;&gt;a4 -->
<g id="edge3" class="edge">
<title>a3-&gt;a4</title>
<path fill="none" stroke="#000000" d="M144,-356.269C144,-356.269 144,-344.5248 144,-344.5248"/>
<polygon fill="#000000" stroke="#000000" points="147.5001,-344.5248 144,-334.5248 140.5001,-344.5249 147.5001,-344.5248"/>
</g>
<!-- a9 -->
<g id="node5" class="node">
<title>a9</title>
<polygon fill="#ffffff" stroke="#000000" points="106,-40.1513 50,-40.1513 50,-4.1513 106,-4.1513 106,-40.1513"/>
<text text-anchor="middle" x="78" y="-20.2513" font-family="sans-serif" font-size="8.00" fill="#000000">t := t + 1</text>
</g>
<!-- a4&#45;&gt;a9 -->
<g id="edge10" class="edge">
<title>a4-&gt;a9</title>
<path fill="none" stroke="#000000" d="M56.75,-299.0314C56.75,-299.0314 56.75,-40.524 56.75,-40.524"/>
<polygon fill="#000000" stroke="#000000" points="53.2501,-299.0314 56.75,-309.0314 60.2501,-299.0314 53.2501,-299.0314"/>
</g>
<!-- end -->
<g id="node6" class="node">
<title>end</title>
<ellipse fill="#ffffff" stroke="#000000" cx="259" cy="-22.1513" rx="18.2761" ry="18.2761"/>
<ellipse fill="none" stroke="#000000" cx="259" cy="-22.1513" rx="22.3036" ry="22.3036"/>
<text text-anchor="middle" x="259" y="-20.2513" font-family="sans-serif" font-size="8.00" fill="#000000">end</text>
</g>
<!-- a4&#45;&gt;end -->
<g id="edge5" class="edge">
<title>a4-&gt;end</title>
<path fill="none" stroke="#000000" d="M259,-312.5834C259,-312.5834 259,-54.659 259,-54.659"/>
<polygon fill="#000000" stroke="#000000" points="262.5001,-54.659 259,-44.659 255.5001,-54.6591 262.5001,-54.659"/>
<text text-anchor="middle" x="246" y="-186.6212" font-family="sans-serif" font-size="10.00" fill="#000000">true  </text>
</g>
<!-- a5 -->
<g id="node7" class="node">
<title>a5</title>
<polygon fill="#ffffff" stroke="#000000" points="216,-276.3026 72,-276.3026 72,-240.3026 216,-240.3026 216,-276.3026"/>
<text text-anchor="middle" x="144" y="-256.4026" font-family="sans-serif" font-size="8.00" fill="#000000">P'(t) := RECOMBINATION{P(t)}</text>
</g>
<!-- a4&#45;&gt;a5 -->
<g id="edge4" class="edge">
<title>a4-&gt;a5</title>
<path fill="none" stroke="#000000" d="M144,-298.269C144,-298.269 144,-286.5248 144,-286.5248"/>
<polygon fill="#000000" stroke="#000000" points="147.5001,-286.5248 144,-276.5248 140.5001,-286.5249 147.5001,-286.5248"/>
<text text-anchor="middle" x="127" y="-284.3969" font-family="sans-serif" font-size="10.00" fill="#000000">false   </text>
</g>
<!-- a6 -->
<g id="node8" class="node">
<title>a6</title>
<polygon fill="#ffffff" stroke="#000000" points="204.5,-218.3026 83.5,-218.3026 83.5,-182.3026 204.5,-182.3026 204.5,-218.3026"/>
<text text-anchor="middle" x="144" y="-198.4026" font-family="sans-serif" font-size="8.00" fill="#000000">P''(t) := MUTATION{P'(t)}</text>
</g>
<!-- a5&#45;&gt;a6 -->
<g id="edge6" class="edge">
<title>a5-&gt;a6</title>
<path fill="none" stroke="#000000" d="M144,-240.269C144,-240.269 144,-228.5248 144,-228.5248"/>
<polygon fill="#000000" stroke="#000000" points="147.5001,-228.5248 144,-218.5248 140.5001,-228.5249 147.5001,-228.5248"/>
</g>
<!-- a7 -->
<g id="node9" class="node">
<title>a7</title>
<polygon fill="#ffffff" stroke="#000000" points="224.5,-160.3026 63.5,-160.3026 63.5,-124.3026 224.5,-124.3026 224.5,-160.3026"/>
<text text-anchor="middle" x="144" y="-140.4026" font-family="sans-serif" font-size="8.00" fill="#000000">P(t+1) := SELECTION{P''(t) + P(t)}</text>
</g>
<!-- a6&#45;&gt;a7 -->
<g id="edge7" class="edge">
<title>a6-&gt;a7</title>
<path fill="none" stroke="#000000" d="M144,-182.269C144,-182.269 144,-170.5248 144,-170.5248"/>
<polygon fill="#000000" stroke="#000000" points="147.5001,-170.5248 144,-160.5248 140.5001,-170.5249 147.5001,-170.5248"/>
</g>
<!-- a8 -->
<g id="node10" class="node">
<title>a8</title>
<polygon fill="#ffffff" stroke="#000000" points="196.5,-102.3026 73.5,-102.3026 73.5,-66.3026 196.5,-66.3026 196.5,-102.3026"/>
<text text-anchor="middle" x="135" y="-82.4026" font-family="sans-serif" font-size="8.00" fill="#000000">evaluate FITNESS of P''(t)</text>
</g>
<!-- a7&#45;&gt;a8 -->
<g id="edge8" class="edge">
<title>a7-&gt;a8</title>
<path fill="none" stroke="#000000" d="M135,-124.269C135,-124.269 135,-112.5248 135,-112.5248"/>
<polygon fill="#000000" stroke="#000000" points="138.5001,-112.5248 135,-102.5248 131.5001,-112.5249 138.5001,-112.5248"/>
</g>
<!-- a8&#45;&gt;a9 -->
<g id="edge9" class="edge">
<title>a8-&gt;a9</title>
<path fill="none" stroke="#000000" d="M89.75,-65.9913C89.75,-65.9913 89.75,-50.5465 89.75,-50.5465"/>
<polygon fill="#000000" stroke="#000000" points="93.2501,-50.5464 89.75,-40.5465 86.2501,-50.5465 93.2501,-50.5464"/>
</g>
<!-- expl -->
<g id="node11" class="node">
<title>expl</title>
<polygon fill="#f5f5f5" stroke="none" points="439,-508.3026 209,-508.3026 209,-472.3026 439,-472.3026 439,-508.3026"/>
<text text-anchor="start" x="217" y="-493.3026" font-family="sans-serif" font-size="10.00" fill="#000000">P(t): generation of ancestors at a time t</text>
<text text-anchor="start" x="217" y="-482.3026" font-family="sans-serif" font-size="10.00" fill="#000000">P''(t): generation of descendants at a time t</text>
</g>
</g>
</svg>
