<svg viewBox="0 0 24 24" xmlns="http://www.w3.org/2000/svg">
    <path d="M19.3996 14.148C21.9082 12.5083 22.7289 9.16368 21.2109 6.53493C20.4502 5.21636 19.2207 4.27206 17.7497 3.87776C16.3868 3.51187 14.9634 3.6615 13.7106 4.29444L12 1.33337L8.44934 7.48295L0.242432 21.6959H23.7576L19.3996 14.148ZM17.3474 5.38416C18.4167 5.66894 19.3064 6.35548 19.8606 7.31143C20.9499 9.19582 20.384 11.5859 18.6176 12.7931L14.4917 5.64797C15.3806 5.22055 16.3831 5.12734 17.3474 5.38416ZM12 4.45432L21.0533 20.135H15.7562L9.35029 9.04341L11.9995 4.45478L12 4.45432ZM2.94667 20.135L8.44888 10.6071L13.9511 20.135H2.94667Z"/>
</svg>