<svg width="160" height="160" viewBox="0 0 160 160" fill="none" xmlns="http://www.w3.org/2000/svg">
<rect width="160" height="160" rx="24" fill="url(#paint0_radial_1356_9178)"/>
<g clip-path="url(#clip0_1356_9178)">
<path d="M83.8184 135.923L134.647 81.0233L108.91 51.8051L73.2923 42.4978L56.2196 53.418L28.7705 81.0472L83.8124 135.923H83.8184ZM107.982 55.2222L127.574 77.5764L96.1517 70.7423L94.512 64.1889L104.894 57.2831L107.988 55.2281L107.982 55.2222ZM75.303 60.9212L91.0652 64.858L92.3338 69.9119L75.303 66.2081V60.9212ZM73.5975 69.2846L93.2433 73.5559L98.8684 96.0117L37.3637 80.6589L73.5975 69.2846ZM97.0732 74.4102V74.3863L128.627 81.2443L102.429 95.7728L97.0792 74.4042L97.0732 74.4102ZM99.2095 56.853L92.1842 61.5306L75.303 57.319V46.4883L104.021 53.657L99.2095 56.859V56.853ZM71.9279 47.1275V56.4707L61.719 53.9198L71.9279 47.1216V47.1275ZM57.985 56.6021L71.9279 60.0789V66.2798L37.4475 77.1044L57.985 56.6021ZM83.2618 130.463L36.867 84.1476L98.7248 99.5841L83.2618 130.463ZM90.1376 124.561L102.597 99.6797L124.941 86.7821L90.1316 124.561H90.1376Z" fill="white"/>
<path d="M126.885 96.0596L122.547 100.683L133.492 119.597H104.81L99.1367 125.654H144L126.885 96.0596Z" fill="white" fill-opacity="0.25"/>
<path d="M61.5331 119.597H26.5081L39.3321 97.4335L34.8859 92.9949L16 125.654H67.595L61.5331 119.597Z" fill="white" fill-opacity="0.25"/>
<path d="M74.8835 35.9563L79.9999 27.109L88.5632 41.9183L96.7495 43.9613L79.9999 15L63.4658 43.585L74.8835 35.9563Z" fill="white" fill-opacity="0.25"/>
</g>
<defs>
<radialGradient id="paint0_radial_1356_9178" cx="0" cy="0" r="1" gradientUnits="userSpaceOnUse" gradientTransform="translate(-0.706968 166.297) scale(220.169)">
<stop offset="0.203961" stop-color="#4B5468"/>
<stop offset="0.897521" stop-color="#439EFF"/>
</radialGradient>
<clipPath id="clip0_1356_9178">
<rect width="128" height="120.923" fill="white" transform="translate(16 15)"/>
</clipPath>
</defs>
</svg>
