<svg width="100" height="100" viewBox="0 0 100 100" fill="none" xmlns="http://www.w3.org/2000/svg">
<g clip-path="url(#clip0_1356_9157)">
<path d="M52.863 95.6923L90.9848 54.5174L71.6816 32.6038L44.9685 25.6233L32.164 33.8135L11.5771 54.5353L52.8586 95.6923H52.863ZM70.9859 35.1666L85.6799 51.9322L62.113 46.8066L60.8832 41.8916L68.6701 36.7123L70.9904 35.171L70.9859 35.1666ZM46.4765 39.4409L58.2981 42.3934L59.2496 46.1839L46.4765 43.406V39.4409ZM45.1974 45.7134L59.9318 48.9169L64.1506 65.7587L18.022 54.2441L45.1974 45.7134ZM62.8042 49.5576V49.5397L86.4698 54.6832L66.821 65.5795L62.8087 49.5531L62.8042 49.5576ZM64.4064 36.3897L59.1374 39.8979L46.4765 36.7392V28.6162L68.0148 33.9927L64.4064 36.3942V36.3897ZM43.9452 29.0956V36.1029L36.2885 34.1898L43.9452 29.0911V29.0956ZM33.488 36.2015L43.9452 38.8091V43.4598L18.0849 51.5782L33.488 36.2015ZM52.4457 91.5972L17.6495 56.8607L64.0429 68.438L52.4457 91.5972ZM57.6025 87.1706L66.9467 68.5097L83.7052 58.8365L57.598 87.1706H57.6025Z" fill="white"/>
<path d="M85.1638 65.7947L81.9099 69.2625L90.1186 83.4474H68.6072L64.3525 87.9906H97.9997L85.1638 65.7947Z" fill="white" fill-opacity="0.25"/>
<path d="M36.1498 83.4473H9.88108L19.499 66.825L16.1644 63.4961L2 87.9904H40.6963L36.1498 83.4473Z" fill="white" fill-opacity="0.25"/>
<path d="M46.1629 20.7172L50.0002 14.0818L56.4226 25.1887L62.5624 26.721L50.0002 5L37.5996 26.4387L46.1629 20.7172Z" fill="white" fill-opacity="0.25"/>
</g>
<defs>
<clipPath id="clip0_1356_9157">
<rect width="96" height="90.6923" fill="white" transform="translate(2 5)"/>
</clipPath>
</defs>
</svg>
