<svg width="520" height="451" viewBox="0 0 520 451" fill="none" xmlns="http://www.w3.org/2000/svg">
<path d="M423.631 283.376C479.103 247.116 497.253 173.155 463.684 115.024C446.863 85.8662 419.673 64.9845 387.145 56.265C357.008 48.1741 325.531 51.4826 297.826 65.4793L260 0L181.483 135.988L0 450.285H520L423.631 283.376ZM378.25 89.5766C401.894 95.8741 421.57 111.056 433.825 132.195C457.912 173.866 445.399 226.719 406.336 253.414L315.1 95.4103C334.755 85.9589 356.925 83.8976 378.25 89.5766ZM260 69.0145L460.2 415.767H343.063L201.406 170.496L259.99 69.0248L260 69.0145ZM59.8002 415.767L181.472 205.075L303.144 415.767H59.8002Z" fill="url(#paint0_linear_552_15)"/>
<defs>
<linearGradient id="paint0_linear_552_15" x1="58.6494" y1="460.228" x2="444.575" y2="74.3019" gradientUnits="userSpaceOnUse">
<stop stop-color="#FC3519"/>
<stop offset="1" stop-color="#F0D136"/>
</linearGradient>
</defs>
</svg>